********************************************************

 Jab Tak Hai Jaan 2012 DVDRip x264 ACC - alrmothe 

********************************************************

TiTLE: Jab Tak Hai Jaan
YEAR:2012
GENRE : Drama | Romance 
imdb URL : http://www.imdb.com/title/tt2176013/
SIZE : 1.77 GB
Format : mp4 
Overall bit rate:1443 Kbps
Sub: vietnamese ,indonesian ,English , Arabic ,malay 

Encoded / Released By :alrmothe

****************************

Video
Format : AVC
Format/Info : Advanced Video Codec
Format profile : High@L3.0
Runtime: 2h 56min 1sec
bit rate: 1820 Kbps
Width: 1245 pixels
Height: 360 pixels
Frame rate: 23.976 fps
Bit depth : 8 bits
Bits/(Pixel*Frame) : 0.200
Stream size : 1.53 GiB (86%)

Audio: Hindi
Format: ACC
Bit rate: 192 Kbps
Sampling rate: 48.0 KHz
Channel(s): 2 channels
Stream size : 242 MiB (8%)
Language : Hindi
********************************************************

Screenshots 
http://img443.imageshack.us/img443/8531/vlcsnap2013011300h29m20.png 
http://img163.imageshack.us/img163/2396/vlcsnap2013011300h31m46.png 
http://img407.imageshack.us/img407/5346/jabtakhaijaan2012.png
